# xmcd CD database file
#
# Track frame offsets:
#	182
#	13840
#	22262
#	33437
#	61770
#	72395
#	83155
#	98482
#	110375
#	121362
#	131712
#	136432
#	147400
#	161785
#
# Disc length: 2269 seconds
#
# Revision: 2
# Processed by: cddbd v1.5.2PL0 Copyright (c) Steve Scherf et al.
# Submitted via: CDex 1.51
#
DISCID=c708db0e
DTITLE=Fats Domino - Fats Domino Greatest Hits
DYEAR=1989
DGENRE=Rock
TTITLE0=Blueberry Hill
TTITLE1=So Long - C.C. Rider
TTITLE2=Ain't that a shame
TTITLE3=Blue Monday
TTITLE4=I'm In Love Again
TTITLE5=Hello Josephine
TTITLE6=I want to walk you home
TTITLE7=Let the four winds blow
TTITLE8=The Fat Man
TTITLE9=I'm Ready
TTITLE10=Jambalaya
TTITLE11=Whole Lotta Lovin'
TTITLE12=I'm Gonna Be A Wheel Someday
TTITLE13=Lawdy Miss Clawdy
EXTD=YEAR: 1989
EXTT0=
EXTT1=
EXTT2=
EXTT3=
EXTT4=
EXTT5=
EXTT6=
EXTT7=
EXTT8=
EXTT9=
EXTT10=
EXTT11=
EXTT12=
EXTT13=
PLAYORDER=
